<?xml version="1.0" standalone="no"?>
<!DOCTYPE svg PUBLIC "-//W3C//DTD SVG 20010904//EN"
 "http://www.w3.org/TR/2001/REC-SVG-20010904/DTD/svg10.dtd">
<svg version="1.0" xmlns="http://www.w3.org/2000/svg"
 width="768.000000pt" height="768.000000pt" viewBox="0 0 768.000000 768.000000"
 preserveAspectRatio="xMidYMid meet">
<metadata>
Created by potrace 1.14, written by Peter Selinger 2001-2017
</metadata>
<g transform="translate(0.000000,768.000000) scale(0.100000,-0.100000)"
fill="#000000" stroke="none">
<path d="M2967 6773 c-2 -1 -17 -4 -33 -6 -17 -2 -34 -6 -39 -9 -6 -3 -27 -8
-48 -12 -22 -4 -41 -14 -44 -24 -9 -24 -26 -33 -35 -19 -10 17 -100 -32 -154
-83 -39 -36 -124 -148 -124 -163 0 -3 -11 -31 -25 -61 -36 -78 -54 -166 -50
-244 3 -74 4 -82 25 -132 15 -37 77 -105 121 -132 27 -17 112 -49 144 -53 11
-2 43 -7 70 -11 101 -16 226 -4 385 35 41 10 91 22 110 25 19 3 46 8 60 11 60
12 84 16 148 21 84 7 68 7 197 0 61 -3 121 -8 135 -11 14 -3 39 -8 55 -11 127
-22 339 -125 422 -203 12 -12 28 -21 35 -21 10 0 10 2 1 8 -6 4 -15 21 -19 37
-3 17 -13 41 -20 55 -17 34 -28 63 -26 73 1 4 -3 7 -8 7 -5 0 -9 4 -7 8 3 10
-55 126 -65 130 -5 2 -8 10 -8 19 0 8 -9 26 -20 40 -11 14 -20 32 -20 39 0 8
-4 14 -10 14 -5 0 -10 5 -10 11 0 12 -41 74 -115 174 -49 66 -217 245 -229
245 -3 0 -17 10 -30 21 -14 12 -33 27 -44 33 -11 6 -37 22 -58 36 -37 25 -166
84 -206 95 -5 2 -9 3 -10 5 -2 1 -11 3 -22 5 -10 2 -39 9 -65 15 -71 16 -92
20 -141 26 -52 6 -219 12 -223 7z"/>
<path d="M3470 6772 c0 -4 23 -18 50 -31 28 -13 50 -27 50 -31 0 -4 8 -10 18
-14 22 -7 48 -24 92 -59 19 -15 40 -31 45 -35 80 -55 257 -230 325 -320 14
-19 30 -39 35 -45 6 -7 23 -32 39 -57 16 -25 41 -63 56 -85 54 -79 187 -373
204 -450 1 -5 12 -41 24 -80 21 -70 46 -173 57 -230 12 -63 14 -71 20 -110 3
-22 7 -51 10 -64 2 -13 7 -45 11 -70 24 -172 107 -378 217 -543 71 -106 205
-246 221 -231 3 4 6 2 6 -4 0 -23 158 -93 245 -109 88 -16 239 -4 300 25 11 5
41 17 67 28 27 10 48 21 48 26 0 4 4 7 10 7 5 0 33 14 62 32 201 122 338 290
374 459 16 77 20 107 19 127 -1 12 2 22 6 22 4 0 3 15 -1 34 -5 22 -3 39 3 45
7 7 7 11 1 11 -5 0 -10 8 -10 18 -3 62 -46 221 -84 307 -10 22 -24 55 -31 73
-8 17 -17 32 -21 32 -5 0 -8 7 -8 15 0 16 -8 30 -67 122 -18 28 -33 56 -33 62
0 6 -3 11 -7 11 -5 0 -24 25 -42 55 -19 30 -39 55 -43 55 -4 0 -8 7 -8 15 0 8
-4 15 -9 15 -5 0 -12 9 -16 19 -3 10 -61 75 -128 143 -130 131 -144 144 -222
198 -27 19 -52 38 -55 42 -7 9 -129 88 -136 88 -3 0 -18 9 -33 20 -27 18 -284
150 -294 150 -3 0 -27 10 -54 22 -26 12 -50 22 -53 23 -31 7 -118 40 -127 48
-7 5 -13 7 -13 4 0 -3 -24 3 -52 14 -29 10 -61 19 -70 19 -10 0 -18 4 -18 10
0 5 -3 9 -7 8 -9 -2 -108 20 -133 29 -8 3 -26 8 -40 10 -14 2 -36 8 -50 13
-14 5 -36 11 -50 12 -14 2 -31 7 -37 11 -7 5 -13 6 -13 3 0 -2 -15 0 -32 5
-29 8 -117 25 -183 34 -11 2 -22 4 -25 5 -7 3 -17 5 -90 14 -36 5 -72 10 -80
11 -20 4 -123 15 -187 20 -29 2 -53 1 -53 -3z"/>
<path d="M2333 5666 c-76 -26 -150 -141 -137 -213 3 -15 6 -36 7 -45 1 -10 5
-18 9 -18 4 0 8 -6 8 -13 0 -14 56 -67 74 -68 6 0 22 -2 35 -5 64 -12 164 53
195 127 17 40 15 161 -3 167 -6 2 -11 10 -11 17 0 20 -63 55 -106 59 -22 1
-53 -2 -71 -8z"/>
<path d="M2015 5664 c-6 -1 -22 -5 -36 -8 -114 -25 -153 -229 -61 -321 52 -52
146 -23 187 58 35 68 28 182 -13 230 -18 20 -63 44 -77 41z"/>
<path d="M2768 5583 c-50 -19 -138 -89 -138 -110 0 -7 -4 -13 -8 -13 -19 0
-56 -110 -55 -159 3 -73 38 -123 101 -145 75 -25 165 4 249 81 108 98 125 267
34 333 -41 29 -124 35 -183 13z"/>
<path d="M1660 5449 c-61 -24 -87 -125 -45 -181 23 -32 48 -42 90 -39 86 6
123 142 55 204 -31 28 -57 32 -100 16z"/>
<path d="M3270 5412 c-82 -26 -176 -86 -237 -152 -43 -46 -93 -134 -93 -163 0
-9 -4 -18 -9 -22 -5 -3 -8 -38 -7 -78 3 -88 29 -135 95 -168 43 -21 111 -27
169 -15 31 7 133 55 152 72 148 133 193 211 194 335 1 66 -2 81 -26 117 -15
22 -44 48 -63 58 -35 16 -143 26 -175 16z"/>
<path d="M1995 5203 c-33 -7 -71 -18 -85 -24 -73 -32 -98 -45 -127 -66 -17
-13 -36 -23 -42 -23 -15 0 -221 -203 -221 -217 0 -6 -3 -13 -8 -15 -4 -1 -25
-30 -47 -63 -21 -33 -42 -61 -47 -63 -4 -2 -8 -8 -8 -14 0 -5 -8 -22 -19 -36
-17 -25 -115 -211 -116 -222 -1 -3 -9 -20 -18 -37 -10 -18 -18 -36 -18 -40 -1
-5 -5 -17 -9 -28 -4 -11 -17 -47 -29 -80 -19 -50 -39 -124 -67 -240 -2 -11 -6
-36 -9 -55 -2 -19 -6 -45 -9 -58 -24 -108 -24 -455 0 -632 3 -25 8 -58 10 -75
2 -16 6 -46 8 -65 4 -29 17 -99 52 -270 11 -53 75 -287 94 -340 14 -41 61
-174 67 -190 4 -8 7 -17 7 -20 1 -3 7 -18 13 -35 24 -58 36 -90 38 -95 0 -3
11 -27 23 -54 12 -27 22 -50 22 -52 0 -7 69 -154 72 -154 2 0 3 55 3 123 1
151 11 229 50 387 18 72 20 79 28 100 3 8 11 33 17 55 30 100 117 282 187 393
18 29 33 57 33 62 0 6 4 10 8 10 4 0 21 21 38 47 16 25 34 51 39 57 6 6 26 31
45 56 78 99 230 252 345 345 39 31 80 65 93 76 12 10 22 16 22 14 0 -3 13 8
30 25 16 16 32 30 36 30 14 0 180 178 211 227 9 15 22 31 28 35 5 4 6 8 2 8
-4 0 1 9 11 20 29 32 107 186 135 270 44 127 60 301 36 368 -5 13 -11 37 -14
55 -6 30 -42 116 -54 127 -3 3 -12 17 -20 33 -48 91 -329 288 -446 311 -11 2
-33 9 -50 16 -69 27 -249 34 -340 13z"/>
<path d="M6248 5038 c-23 -19 -46 -61 -42 -78 1 -8 5 -26 8 -40 7 -32 42 -63
87 -76 65 -20 129 25 129 91 0 36 -34 95 -55 95 -8 0 -15 5 -15 10 0 14 -93
12 -112 -2z"/>
<path d="M6184 4751 c-46 -20 -68 -94 -44 -155 12 -33 77 -98 115 -115 133
-60 245 36 184 158 -15 29 -94 106 -112 110 -45 8 -125 9 -143 2z"/>
<path d="M6022 4459 c-39 -19 -89 -90 -77 -108 3 -5 1 -12 -4 -15 -13 -8 6
-93 29 -132 101 -162 311 -122 313 61 2 144 -143 252 -261 194z"/>
<path d="M5702 4214 c-99 -51 -125 -215 -53 -349 50 -95 129 -144 209 -131
138 22 186 222 91 380 -59 98 -166 141 -247 100z"/>
<path d="M5261 4072 c-52 -17 -75 -35 -102 -79 -44 -70 -61 -178 -45 -275 12
-78 60 -193 93 -226 7 -7 16 -19 20 -25 15 -24 89 -74 127 -87 65 -21 151 5
193 60 24 31 52 96 57 135 4 23 8 50 10 61 2 12 -2 58 -10 103 -29 170 -140
316 -253 336 -19 3 -37 7 -40 9 -3 2 -26 -3 -50 -12z"/>
<path d="M6416 3879 c-55 -13 -94 -37 -150 -91 -26 -27 -53 -48 -58 -48 -5 0
-6 -4 -3 -10 3 -5 2 -10 -2 -10 -19 0 -97 -134 -143 -245 -10 -22 -33 -95 -36
-110 -1 -5 -8 -30 -15 -55 -7 -25 -13 -48 -15 -52 -1 -5 -2 -9 -3 -10 -2 -2
-4 -14 -7 -27 -2 -14 -9 -30 -15 -38 -6 -7 -9 -13 -6 -13 10 0 -60 -158 -101
-230 -20 -36 -39 -69 -41 -75 -2 -5 -9 -15 -15 -22 -14 -16 -25 -29 -61 -78
-38 -52 -82 -101 -124 -139 -19 -17 -45 -41 -59 -53 -14 -13 -28 -23 -33 -23
-4 0 -14 -6 -21 -13 -18 -18 -144 -80 -196 -97 -23 -7 -41 -15 -39 -17 2 -2
24 -6 48 -9 24 -3 58 -7 74 -10 189 -31 576 -18 723 25 18 5 36 10 40 11 4 0
25 6 47 12 22 6 42 12 45 13 49 11 230 95 230 106 0 5 5 9 12 9 17 0 106 70
175 139 109 109 222 277 253 376 7 22 15 45 19 50 3 6 6 15 7 20 1 6 5 28 9
50 9 50 13 167 6 180 -3 6 -7 21 -9 35 -7 62 -77 201 -132 264 -76 88 -131
133 -194 164 -55 27 -149 36 -210 21z"/>
<path d="M2050 3251 c0 -4 -10 -19 -22 -33 -57 -63 -77 -90 -83 -109 -4 -10
-11 -17 -16 -14 -5 4 -9 -1 -9 -9 0 -9 -4 -16 -10 -16 -5 0 -10 -7 -10 -15 0
-8 -4 -15 -9 -15 -5 0 -12 -8 -15 -17 -3 -10 -17 -31 -31 -47 -14 -16 -25 -35
-25 -43 0 -7 -4 -13 -10 -13 -5 0 -10 -5 -10 -10 0 -6 -11 -28 -25 -50 -14
-22 -25 -46 -25 -55 0 -8 -4 -15 -8 -15 -18 0 -128 -282 -147 -375 -28 -137
-37 -297 -22 -375 2 -14 8 -45 12 -70 8 -54 71 -246 91 -277 8 -12 14 -29 14
-38 0 -8 4 -15 8 -15 5 0 14 -16 22 -35 8 -19 17 -35 22 -35 4 0 8 -6 8 -12 0
-14 43 -68 100 -127 109 -113 237 -160 420 -156 106 2 127 5 210 32 64 20 100
37 100 45 0 5 7 8 15 8 8 0 15 5 15 12 0 6 3 9 6 5 13 -12 84 85 99 135 54
182 -35 410 -245 629 -160 167 -249 291 -321 446 -55 118 -52 110 -84 230 -12
44 -16 69 -19 111 -2 23 -5 44 -7 46 -5 5 -2 139 4 181 3 17 8 47 12 68 4 20
4 37 1 37 -3 0 -6 -4 -6 -9z"/>
<path d="M2933 2715 c-29 -7 -54 -10 -56 -8 -2 2 -10 -3 -17 -12 -7 -8 -20
-15 -28 -15 -24 0 -87 -73 -100 -116 -20 -69 8 -145 79 -215 93 -91 201 -130
349 -126 79 2 104 7 150 29 87 42 115 76 124 147 21 187 -267 368 -501 316z"/>
<path d="M6650 2623 c-14 -9 -27 -19 -30 -22 -12 -14 -188 -103 -193 -99 -1 2
-14 -4 -27 -13 -20 -13 -78 -36 -110 -44 -3 -1 -14 -5 -25 -9 -71 -27 -215
-62 -290 -71 -27 -4 -57 -8 -65 -10 -83 -21 -406 -21 -540 0 -14 2 -45 7 -70
10 -25 3 -63 11 -85 16 -22 5 -49 11 -60 13 -77 13 -282 78 -390 123 -188 79
-371 114 -572 108 -118 -4 -166 -9 -252 -29 -102 -23 -257 -102 -311 -158 -47
-48 -90 -98 -85 -98 4 0 -3 -13 -14 -28 -11 -16 -26 -46 -34 -68 -8 -21 -19
-48 -23 -59 -4 -11 -9 -24 -10 -30 -1 -5 -3 -12 -4 -15 -18 -49 -29 -265 -15
-330 2 -13 7 -42 10 -65 14 -99 91 -277 145 -335 17 -18 30 -34 30 -37 0 -4
30 -33 72 -68 35 -29 146 -95 161 -95 7 0 17 -4 23 -9 9 -8 60 -27 100 -36 10
-2 37 -9 59 -15 22 -6 58 -13 80 -16 22 -2 56 -7 75 -10 67 -12 395 -5 475 10
11 2 42 7 68 10 27 4 59 9 70 12 12 2 38 7 57 10 119 19 353 111 529 209 67
37 232 143 241 154 3 3 28 22 55 41 63 43 73 51 92 72 9 9 20 15 25 12 4 -3 8
2 8 10 0 9 4 16 10 16 5 0 23 12 40 28 17 15 47 42 68 60 75 68 224 217 290
290 37 41 78 87 92 102 14 15 41 47 60 70 19 24 41 49 48 56 6 7 12 17 12 23
0 5 6 14 13 18 12 7 72 86 139 181 13 18 31 42 41 54 9 11 17 27 17 35 0 7 4
13 9 13 5 0 11 7 15 15 7 19 6 19 -24 -2z"/>
<path d="M2989 2146 c-3 -3 -14 -7 -25 -9 -11 -1 -36 -13 -56 -25 -177 -110
-29 -344 217 -344 192 0 279 173 150 297 -56 55 -109 77 -200 82 -44 3 -83 3
-86 -1z"/>
<path d="M3136 1693 c-55 -19 -91 -47 -110 -87 -37 -79 -8 -167 68 -204 57
-29 96 -34 155 -21 115 26 176 133 128 226 -40 77 -151 116 -241 86z"/>
<path d="M3385 1355 c-22 -6 -44 -12 -50 -14 -23 -4 -88 -66 -100 -94 -26 -63
3 -134 64 -155 36 -13 108 -8 147 9 44 19 94 59 94 75 0 7 4 14 9 16 15 5 20
67 9 98 -18 54 -103 86 -173 65z"/>
<path d="M3607 1116 c-27 -22 -60 -80 -51 -89 5 -5 11 -29 13 -50 1 -5 7 -7
13 -5 7 3 18 -5 23 -16 9 -17 20 -21 57 -21 114 1 168 119 85 186 -31 24 -109
22 -140 -5z"/>
</g>
</svg>
